<svg width="72" height="72" viewBox="0 0 72 72" fill="none" xmlns="http://www.w3.org/2000/svg">
<rect width="72" height="72" fill="#272908"/>
<g id="Desktop - 2">
<rect width="1440" height="1024" transform="translate(-684.5 -186)" fill="#272908"/>
<g id="Frame 39">
<g id="Frame 38">
<g id="Component 4">
<g id="Frame 35">
<g clip-path="url(#clip0_2003_2)">
<rect width="72" height="72" rx="36" fill="#272908"/>
<path id="Ellipse 4" d="M72 34.0364C72 53.9186 55.8823 70.0364 36 70.0364C16.1178 70.0364 0 53.9186 0 34.0364C0 14.1541 16.1178 -1.96362 36 -1.96362C55.8823 -1.96362 72 14.1541 72 34.0364Z" stroke="#FAF9F7" stroke-width="4.65455"/>
<rect id="Rectangle 1" x="7.19995" y="58.2545" width="57.6" height="14.4" fill="#272908"/>
<g id="Mountains 02">
<path id="Vector" d="M34.7948 50.7273C39.9272 49.7455 43.5273 48.1091 40.5818 46.1455C37.6364 44.1818 38.6182 43.8545 38.6182 43.8545C40.8518 42.1041 42.7684 40.1698 44.6643 37.9437C45.6711 36.7592 46.9475 36.5695 48.1928 35.8544C50.4543 34.5548 51.9475 32.4064 54.1595 30.7804C57.4309 31.9898 59.5685 35.8979 61.6317 36.3425C63.3758 36.7187 64.3517 37.2286 65.5103 38.5065C67.6882 40.9098 72.5891 45.4273 72.5891 45.4273L75.9273 47.9698C75.9273 47.9698 74.6366 53.9638 73.4658 56.8749C67.5828 71.5 53.8435 81.2843 38.0657 81.8346C37.5421 81.8532 36.8482 81.1692 36.7584 80.7495C36.3463 78.825 38.9734 77.7555 41.3836 76.9036C46.4673 75.1065 62.496 74.2351 60.8727 69.3818C61.6317 59.8909 39.4882 57.7437 30.1091 56.6182C21.0791 55.5346 20.5166 53.4586 34.7948 50.7273Z" fill="#FAF9F7"/>
<path id="Vector_2" d="M32.2395 42.3618C33.7091 44.1818 34.3636 44.1818 36 46.1455C37.7453 48.2398 27.4909 49.0909 19.8767 50.7273C12.2625 52.3637 9.9611 56.2416 17.4291 59.7208C26.8158 64.094 35.1522 65.9292 31.4182 69.7091C27.6841 73.489 17.4291 74.2909 9.16361 71.0182C-7.25445 63.0926 -5.89091 45.4428 -5.89091 45.4428L-2.37651 43.8682C-2.37651 43.8682 2.48112 41.1127 4.52857 39.3956L17.1571 28.8168C18.2043 29.477 19.1483 30.3603 19.8767 31.2468C21.1427 32.7842 22.5868 33.494 24.1873 34.4766C26.0065 35.5924 26.913 38.0411 28.626 39.3026C29.9983 40.313 31.1799 41.215 32.2271 42.3556C32.2271 42.3556 30.77 40.5418 32.2395 42.3618Z" fill="#FAF9F7"/>
<path id="Vector_3" opacity="0.32" d="M32.4 44.5091C33.7091 45.4909 33.3818 45.4909 34.3636 46.1455C35.3455 46.8 27.1636 48.1091 26.8364 48.1091C26.5091 48.1091 23.8276 46.2613 20.9886 42.4059L17.0182 37.92L20.7864 39.6056C19.8981 35.8935 16.6368 33.8264 17.5123 30.7637L21.958 34.8031C23.3532 34.9141 24.1289 35.9259 24.9122 37.0379C26.5091 40.2546 29.2397 41.2316 30.1091 42.2182C30.9785 43.2048 31.0909 43.5273 32.4 44.5091Z" fill="#272908"/>
<path id="Vector_4" opacity="0.32" d="M15.9281 52.113C13.9357 53.5636 13.7818 54.6546 14.109 55.6364C12.1454 52.3636 13.0883 53.7948 12.3729 50.4335C11.5991 46.8049 10.9543 49.1953 10.1099 46.7035L9.19995 43.2C10.8765 44.2694 10.7548 44.653 12.3729 45.3149C13.2343 45.6679 13.9955 45.6489 14.9567 45.8384C16.4456 48.2136 17.2219 49.0491 20.3272 50.1633C18.257 50.7203 17.3818 51.0546 15.9281 52.113Z" fill="#272908"/>
<path id="Vector_5" opacity="0.32" d="M46.7999 52.3637L55.4475 46.6162C57.4628 45.2093 56.6673 42.9104 59.0537 41.4811L59.0003 38.7237L56.8436 40.1035C55.1924 40.8361 53.9679 41.735 52.217 42.8609L55.5542 38.0427C54.9118 36.4539 54.3969 34.9774 55.1019 33.3818L59.7007 37.2764L63.1005 38.0427L68.0727 43.7868L63.1005 44.4385L56.8436 49.7455H53.3454C51.3486 50.4511 49.184 51.9569 46.7999 52.3637Z" fill="#1F0E00"/>
</g>
<path id="Vector_6" d="M36.3272 -34.0364L22.9091 11.1273H49.7454L36.3272 -34.0364Z" fill="#272908"/>
<path id="Vector_7" d="M36.291 0.654541L33.7819 20.7273L26.8 23.8909L33.1273 27.0545L36.291 33.3818L39.4546 27.0545L45.7819 23.8909L38.8 20.7273L36.291 0.654541Z" fill="#FAF9F7" stroke="#FAF9F7" stroke-width="0.581818" stroke-linecap="round" stroke-linejoin="round"/>
<circle id="Ellipse 5" cx="36.3273" cy="24.0545" r="2.61818" fill="#272908"/>
</g>
</g>
</g>
</g>
</g>
</g>
<defs>
<clipPath id="clip0_2003_2">
<rect width="72" height="72" rx="36" fill="white"/>
</clipPath>
</defs>
</svg>
