<svg width="793" height="80" viewBox="0 0 793 80" fill="none" xmlns="http://www.w3.org/2000/svg">
<g id="Desktop - 2">
<g id="Frame 39">
<g id="Frame 40">
<g id="Set the table for adventure">
<path d="M1.792 51.968C4.416 60.224 7.488 64.256 13.056 64.256C17.088 64.256 22.848 62.336 22.848 55.552C22.848 46.272 0.832 42.944 0.832 28.992C0.832 19.456 8.512 16.192 16.256 16.192C20.096 16.192 23.936 17.024 26.816 18.24C27.264 18.496 27.52 18.816 27.52 19.52V29.952C27.52 30.592 27.072 30.976 26.56 30.976C26.048 30.976 25.536 30.592 25.536 29.824C25.472 23.552 20.8 18.688 15.296 18.688C10.56 18.688 7.744 21.12 7.744 26.56C7.744 37.632 29.12 39.616 29.12 52.416C29.12 63.04 21.312 66.752 13.056 66.752C9.088 66.752 4.928 65.856 1.6 64.512C0.96 64.256 0.832 63.616 0.768 62.592C0.64 60.672 0 52.736 0 52.16C0 51.456 0.448 51.2 0.832 51.2C1.216 51.2 1.6 51.392 1.792 51.968Z" fill="#F0EEE9"/>
<path d="M63.464 55.808C63.464 59.776 59.624 66.752 49.832 66.752C40.296 66.752 33.576 60.608 33.576 48.064C33.576 36.224 39.4 27.072 51.176 27.072C56.488 27.072 63.464 29.952 63.464 39.552C63.464 41.856 62.312 42.688 59.56 42.688H41.064C41.064 54.848 45.48 61.824 52.52 61.824C56.872 61.824 59.88 60.48 62.248 55.552C62.44 55.168 62.696 55.04 62.952 55.04C63.336 55.04 63.464 55.36 63.464 55.808ZM49.896 29.12C44.52 29.12 41.96 34.752 41.192 41.024L52.968 40.192C55.08 40.064 55.464 39.232 55.464 37.824C55.464 31.936 53.608 29.12 49.896 29.12Z" fill="#F0EEE9"/>
<path d="M77.8665 21.312V28.224C80.5545 28.224 84.3305 27.712 86.4425 27.712C87.5305 27.712 88.1705 28.416 88.1705 29.12C88.1705 29.824 87.5305 30.528 86.0585 30.528H77.8665V57.536C77.8665 61.44 79.0825 62.912 81.4505 62.912C84.0105 62.912 85.8025 60.928 86.2505 58.176C86.3785 57.472 86.7625 57.088 87.0825 57.088C87.4665 57.088 87.8505 57.536 87.8505 58.304C87.8505 64.064 83.8185 66.816 79.4025 66.816C73.1305 66.816 70.3145 63.68 70.3145 57.92C70.3145 51.392 70.7625 36.736 70.7625 30.592H67.6265C67.1145 30.592 66.8585 30.4 66.8585 30.016C66.8585 29.696 67.0505 29.376 67.5625 28.864L75.6905 20.864C76.2665 20.352 76.6505 20.032 77.0345 20.032C77.5465 20.032 77.8665 20.416 77.8665 21.312Z" fill="#F0EEE9"/>
<path d="M113.054 21.312V28.224C115.742 28.224 119.518 27.712 121.63 27.712C122.718 27.712 123.358 28.416 123.358 29.12C123.358 29.824 122.718 30.528 121.246 30.528H113.054V57.536C113.054 61.44 114.27 62.912 116.638 62.912C119.198 62.912 120.99 60.928 121.438 58.176C121.566 57.472 121.95 57.088 122.27 57.088C122.654 57.088 123.038 57.536 123.038 58.304C123.038 64.064 119.006 66.816 114.59 66.816C108.318 66.816 105.502 63.68 105.502 57.92C105.502 51.392 105.95 36.736 105.95 30.592H102.814C102.302 30.592 102.046 30.4 102.046 30.016C102.046 29.696 102.238 29.376 102.75 28.864L110.878 20.864C111.454 20.352 111.838 20.032 112.222 20.032C112.734 20.032 113.054 20.416 113.054 21.312Z" fill="#F0EEE9"/>
<path d="M137.904 34.944L139.952 33.216C144.048 29.76 147.376 27.072 151.984 27.072C157.296 27.072 160.432 31.168 160.432 36.672V59.52C160.432 63.36 161.648 64.448 165.104 64.448C165.872 64.448 166.256 64.896 166.256 65.344C166.256 65.728 165.936 66.112 165.296 66.112H147.952C147.312 66.112 146.992 65.728 146.992 65.344C146.992 64.896 147.376 64.448 148.144 64.448C151.92 64.448 153.072 62.144 153.072 47.104C153.072 33.664 151.088 31.552 147.888 31.552C145.008 31.552 142.448 33.92 137.904 37.504V48.576C137.904 52.864 137.968 57.728 138.224 59.52C138.736 63.36 139.12 64.448 142.896 64.448C143.664 64.448 144.048 64.896 144.048 65.344C144.048 65.728 143.728 66.112 143.088 66.112H125.36C124.72 66.112 124.4 65.728 124.4 65.344C124.4 64.896 124.784 64.448 125.552 64.448C129.136 64.448 130.16 63.296 130.48 59.52C130.608 57.728 130.864 52.864 130.864 48.576V25.984C130.864 19.328 130.416 17.664 126.704 17.664H125.104C124.464 17.664 124.08 17.408 124.08 17.088C124.08 16.768 124.4 16.448 125.104 16.256C127.792 15.552 133.68 13.696 135.472 13.696C136.88 13.696 137.904 14.592 137.904 16.832V34.944Z" fill="#F0EEE9"/>
<path d="M199.089 55.808C199.089 59.776 195.249 66.752 185.457 66.752C175.921 66.752 169.201 60.608 169.201 48.064C169.201 36.224 175.025 27.072 186.801 27.072C192.113 27.072 199.089 29.952 199.089 39.552C199.089 41.856 197.937 42.688 195.185 42.688H176.689C176.689 54.848 181.105 61.824 188.145 61.824C192.497 61.824 195.505 60.48 197.873 55.552C198.065 55.168 198.321 55.04 198.577 55.04C198.961 55.04 199.089 55.36 199.089 55.808ZM185.521 29.12C180.145 29.12 177.585 34.752 176.817 41.024L188.593 40.192C190.705 40.064 191.089 39.232 191.089 37.824C191.089 31.936 189.233 29.12 185.521 29.12Z" fill="#F0EEE9"/>
<path d="M225.429 21.312V28.224C228.117 28.224 231.893 27.712 234.005 27.712C235.093 27.712 235.733 28.416 235.733 29.12C235.733 29.824 235.093 30.528 233.621 30.528H225.429V57.536C225.429 61.44 226.645 62.912 229.013 62.912C231.573 62.912 233.365 60.928 233.813 58.176C233.941 57.472 234.325 57.088 234.645 57.088C235.029 57.088 235.413 57.536 235.413 58.304C235.413 64.064 231.381 66.816 226.965 66.816C220.693 66.816 217.877 63.68 217.877 57.92C217.877 51.392 218.325 36.736 218.325 30.592H215.189C214.677 30.592 214.421 30.4 214.421 30.016C214.421 29.696 214.613 29.376 215.125 28.864L223.253 20.864C223.829 20.352 224.213 20.032 224.597 20.032C225.109 20.032 225.429 20.416 225.429 21.312Z" fill="#F0EEE9"/>
<path d="M257.703 46.464V42.24C257.703 34.24 256.103 28.992 250.791 28.992C246.695 28.992 245.607 32.832 245.607 35.968C245.607 37.056 245.735 38.08 245.927 38.848C245.095 39.04 244.391 39.104 243.751 39.104C240.679 39.104 239.079 37.248 239.079 34.624C239.079 30.08 244.327 27.072 252.391 27.072C259.943 27.072 264.871 29.824 264.871 37.696C264.871 40 264.487 46.016 264.487 55.552C264.487 60.416 264.487 62.656 267.047 62.656C269.415 62.656 269.479 59.584 270.375 59.584C270.823 59.584 270.951 59.904 270.951 60.608C270.951 63.616 268.967 66.752 264.295 66.752C260.391 66.752 258.471 64.384 257.639 62.336C255.015 65.152 251.239 66.752 247.591 66.752C241.895 66.752 237.671 63.552 237.671 58.048C237.671 48.448 247.015 46.336 254.759 46.336C255.783 46.336 256.743 46.4 257.703 46.464ZM245.159 56.768C245.159 60.608 247.591 62.528 251.367 62.528C253.607 62.528 255.335 62.08 257.383 60.608C257.703 58.496 257.703 51.712 257.703 48.32H256.295C249.831 48.32 245.159 50.88 245.159 56.768Z" fill="#F0EEE9"/>
<path d="M283.741 16.832L283.677 34.368C287.197 30.336 290.525 27.072 295.837 27.072C305.629 27.072 309.022 36.096 309.022 45.248C309.022 57.92 301.214 66.752 289.374 66.752C284.509 66.752 279.773 65.728 277.789 64.128C276.382 62.976 276.254 61.568 276.254 60.16C276.254 58.368 276.702 52.608 276.702 42.112V25.984C276.702 19.328 276.254 17.664 272.542 17.664H270.941C270.301 17.664 269.918 17.408 269.918 17.088C269.918 16.768 270.237 16.448 270.941 16.256C273.629 15.552 279.518 13.696 281.31 13.696C282.717 13.696 283.741 14.592 283.741 16.832ZM283.677 36.928L283.741 57.28C283.741 60.992 286.109 64.192 290.781 64.192C298.013 64.192 301.534 56.512 301.534 47.04C301.534 39.296 299.934 31.744 293.15 31.744C290.078 31.744 286.301 34.368 283.677 36.928Z" fill="#F0EEE9"/>
<path d="M324.529 16.832V48.576C324.529 52.864 324.593 57.728 324.849 59.52C325.361 63.36 325.745 64.448 329.521 64.448C330.289 64.448 330.673 64.896 330.673 65.344C330.673 65.728 330.353 66.112 329.713 66.112H311.985C311.345 66.112 311.025 65.728 311.025 65.344C311.025 64.896 311.409 64.448 312.177 64.448C315.761 64.448 316.785 63.296 317.105 59.52C317.233 57.728 317.489 52.864 317.489 48.576V25.984C317.489 19.328 317.041 17.664 313.329 17.664H311.729C311.089 17.664 310.705 17.408 310.705 17.088C310.705 16.768 311.025 16.448 311.729 16.256C314.417 15.552 320.305 13.696 322.097 13.696C323.505 13.696 324.529 14.592 324.529 16.832Z" fill="#F0EEE9"/>
<path d="M363.839 55.808C363.839 59.776 359.999 66.752 350.207 66.752C340.671 66.752 333.951 60.608 333.951 48.064C333.951 36.224 339.775 27.072 351.551 27.072C356.863 27.072 363.839 29.952 363.839 39.552C363.839 41.856 362.687 42.688 359.935 42.688H341.439C341.439 54.848 345.855 61.824 352.895 61.824C357.247 61.824 360.255 60.48 362.623 55.552C362.815 55.168 363.071 55.04 363.327 55.04C363.711 55.04 363.839 55.36 363.839 55.808ZM350.271 29.12C344.895 29.12 342.335 34.752 341.567 41.024L353.343 40.192C355.455 40.064 355.839 39.232 355.839 37.824C355.839 31.936 353.983 29.12 350.271 29.12Z" fill="#F0EEE9"/>
<path d="M401.541 66.112H381.509C380.869 66.112 380.549 65.728 380.549 65.344C380.549 64.896 380.933 64.448 381.701 64.448C385.285 64.448 386.309 63.296 386.629 59.52C386.757 57.728 387.013 52.864 387.013 48.576V45.824C387.013 37.824 386.821 32.896 386.437 30.592H382.277C380.933 30.592 380.421 30.016 380.421 29.44C380.421 28.8 380.997 28.16 381.765 28.16H386.629C386.629 15.488 393.605 13.184 399.877 13.184C404.677 13.184 408.645 14.72 408.645 18.496C408.645 21.632 406.277 22.976 403.141 22.976C403.141 20.48 403.141 14.912 398.469 14.912C396.357 14.912 393.733 16.384 393.733 21.888V28.096C396.485 28.096 400.773 27.52 402.885 27.52C403.781 27.52 404.357 28.288 404.357 29.056C404.357 29.824 403.781 30.528 402.501 30.528H393.733C393.733 38.272 393.733 57.216 393.989 59.008C394.501 62.848 395.781 64.384 401.349 64.384C402.117 64.384 402.501 64.896 402.501 65.344C402.501 65.728 402.181 66.112 401.541 66.112Z" fill="#F0EEE9"/>
<path d="M420.826 66.752C410.714 66.752 404.826 60.16 404.826 48.448C404.826 33.728 412.506 27.072 423.002 27.072C433.114 27.072 439.066 34.048 439.066 45.76C439.066 60.48 431.322 66.752 420.826 66.752ZM422.554 64.512C429.21 64.512 431.194 57.664 431.194 48C431.194 37.504 428.506 29.248 421.658 29.248C415.066 29.248 412.634 36.48 412.634 46.144C412.634 56.64 415.578 64.512 422.554 64.512Z" fill="#F0EEE9"/>
<path d="M455.785 37.952C457.833 29.12 461.801 27.072 465.257 27.072C468.521 27.072 470.761 28.672 470.761 32.256C470.761 36.16 466.921 36.992 465.001 36.992C465.001 35.84 464.937 32.896 462.185 32.896C458.601 32.896 455.593 39.232 455.593 46.784C455.593 54.528 455.785 57.28 455.977 59.072C456.489 62.912 458.025 64.448 463.273 64.448C464.041 64.448 464.425 64.896 464.425 65.344C464.425 65.728 464.105 66.112 463.465 66.112H443.497C442.857 66.112 442.537 65.728 442.537 65.344C442.537 64.896 442.921 64.448 443.689 64.448C447.017 64.448 448.297 62.848 448.617 59.072C448.745 57.28 449.001 52.864 449.001 48.576V45.824C449.001 37.824 448.617 31.232 443.305 31.232H441.769C441.129 31.232 440.809 30.912 440.809 30.528C440.809 30.208 441.065 29.824 441.769 29.632C444.393 28.928 451.881 27.84 452.905 27.84C455.337 27.84 455.785 32.576 455.785 37.952Z" fill="#F0EEE9"/>
<path d="M504.016 46.464V42.24C504.016 34.24 502.416 28.992 497.104 28.992C493.008 28.992 491.919 32.832 491.919 35.968C491.919 37.056 492.048 38.08 492.24 38.848C491.408 39.04 490.704 39.104 490.064 39.104C486.992 39.104 485.392 37.248 485.392 34.624C485.392 30.08 490.639 27.072 498.703 27.072C506.255 27.072 511.184 29.824 511.184 37.696C511.184 40 510.799 46.016 510.799 55.552C510.799 60.416 510.799 62.656 513.359 62.656C515.727 62.656 515.792 59.584 516.688 59.584C517.135 59.584 517.263 59.904 517.263 60.608C517.263 63.616 515.28 66.752 510.608 66.752C506.704 66.752 504.784 64.384 503.952 62.336C501.328 65.152 497.552 66.752 493.904 66.752C488.207 66.752 483.983 63.552 483.983 58.048C483.983 48.448 493.328 46.336 501.072 46.336C502.095 46.336 503.056 46.4 504.016 46.464ZM491.471 56.768C491.471 60.608 493.904 62.528 497.68 62.528C499.919 62.528 501.647 62.08 503.695 60.608C504.016 58.496 504.016 51.712 504.016 48.32H502.608C496.144 48.32 491.471 50.88 491.471 56.768Z" fill="#F0EEE9"/>
<path d="M545.286 49.28V38.4C545.286 33.088 542.086 29.696 538.118 29.696C531.782 29.696 528.006 37.248 528.006 47.616C528.006 56.064 531.142 62.976 537.926 62.976C539.974 62.976 542.15 62.272 544.966 60.672C545.094 58.88 545.286 53.504 545.286 49.28ZM545.158 29.824V25.984C545.158 19.328 544.71 17.664 540.998 17.664H539.398C538.758 17.664 538.374 17.408 538.374 17.088C538.374 16.768 538.694 16.448 539.398 16.256C542.086 15.552 547.974 13.696 549.766 13.696C551.174 13.696 552.198 14.592 552.198 16.832V55.552C552.198 60.416 552.39 62.656 554.758 62.656C557.126 62.656 557.19 59.584 558.086 59.584C558.534 59.584 558.662 59.904 558.662 60.608C558.662 63.616 556.678 66.752 552.006 66.752C548.102 66.752 546.182 64.384 545.35 62.336C542.342 65.216 538.758 66.752 534.534 66.752C524.934 66.752 520.326 59.072 520.326 49.28C520.326 35.264 526.726 27.072 536.774 27.072C539.654 27.072 542.598 27.712 545.158 29.824Z" fill="#F0EEE9"/>
<path d="M577.695 57.344L585.888 33.792C586.143 33.088 586.208 32.512 586.208 32C586.208 30.272 584.927 29.312 581.919 29.312C581.279 29.312 580.831 28.928 580.831 28.544C580.831 28.16 581.216 27.84 582.112 27.84H594.528C595.488 27.84 595.872 28.224 595.872 28.608C595.872 28.992 595.487 29.312 594.784 29.312C591.328 29.312 590.688 32.704 588.831 37.248L577.055 65.664C576.735 66.368 576.288 66.816 575.776 66.816C575.263 66.816 574.751 66.368 574.367 65.408L562.143 35.008C560.224 30.144 559.839 29.568 556.896 29.568C556.32 29.568 556.128 29.184 556.128 28.8C556.128 28.352 556.447 27.84 556.959 27.84H573.599C574.24 27.84 574.56 28.16 574.56 28.48C574.56 28.8 574.24 29.184 573.536 29.248C570.784 29.568 569.503 30.272 569.503 31.68C569.503 32 569.568 32.32 569.695 32.768L577.695 57.344Z" fill="#F0EEE9"/>
<path d="M623.901 55.808C623.901 59.776 620.061 66.752 610.269 66.752C600.733 66.752 594.013 60.608 594.013 48.064C594.013 36.224 599.838 27.072 611.614 27.072C616.926 27.072 623.901 29.952 623.901 39.552C623.901 41.856 622.75 42.688 619.997 42.688H601.502C601.502 54.848 605.918 61.824 612.958 61.824C617.31 61.824 620.318 60.48 622.685 55.552C622.878 55.168 623.134 55.04 623.39 55.04C623.773 55.04 623.901 55.36 623.901 55.808ZM610.333 29.12C604.958 29.12 602.398 34.752 601.63 41.024L613.406 40.192C615.518 40.064 615.901 39.232 615.901 37.824C615.901 31.936 614.045 29.12 610.333 29.12Z" fill="#F0EEE9"/>
<path d="M640.544 34.816L642.464 33.216C646.56 29.76 649.888 27.072 654.496 27.072C659.808 27.072 662.944 31.168 662.944 36.672V59.52C662.944 63.36 664.16 64.448 667.616 64.448C668.384 64.448 668.768 64.896 668.768 65.344C668.768 65.728 668.448 66.112 667.808 66.112H650.464C649.824 66.112 649.504 65.728 649.504 65.344C649.504 64.896 649.888 64.448 650.656 64.448C654.432 64.448 655.584 62.144 655.584 47.104C655.584 33.664 653.6 31.552 650.4 31.552C647.52 31.552 644.96 33.92 640.416 37.504C640.352 39.616 640.352 42.752 640.352 45.824V48.576C640.352 52.864 640.48 57.408 640.736 59.2C641.248 63.04 641.376 64.448 645.344 64.448C646.176 64.448 646.56 64.896 646.56 65.344C646.56 65.728 646.24 66.112 645.6 66.112H628C627.36 66.112 627.04 65.728 627.04 65.344C627.04 64.896 627.424 64.448 628.192 64.448C633.504 64.384 633.504 61.12 633.504 48.576V45.504C633.504 37.504 633.44 31.232 629.344 31.232H627.552C626.912 31.232 626.72 30.912 626.72 30.592C626.72 29.312 635.936 27.84 638.176 27.84C639.584 27.84 640.608 28.736 640.608 30.976C640.608 31.744 640.608 33.472 640.544 34.816Z" fill="#F0EEE9"/>
<path d="M681.429 21.312V28.224C684.117 28.224 687.893 27.712 690.005 27.712C691.093 27.712 691.733 28.416 691.733 29.12C691.733 29.824 691.093 30.528 689.621 30.528H681.429V57.536C681.429 61.44 682.645 62.912 685.013 62.912C687.573 62.912 689.365 60.928 689.813 58.176C689.941 57.472 690.325 57.088 690.645 57.088C691.029 57.088 691.413 57.536 691.413 58.304C691.413 64.064 687.381 66.816 682.965 66.816C676.693 66.816 673.877 63.68 673.877 57.92C673.877 51.392 674.325 36.736 674.325 30.592H671.189C670.677 30.592 670.421 30.4 670.421 30.016C670.421 29.696 670.613 29.376 671.125 28.864L679.253 20.864C679.829 20.352 680.213 20.032 680.597 20.032C681.109 20.032 681.429 20.416 681.429 21.312Z" fill="#F0EEE9"/>
<path d="M718.766 62.336C714.607 65.344 710.318 66.752 706.734 66.752C701.294 66.752 697.391 63.488 697.391 57.472V44.16C697.391 36.16 697.135 31.168 693.487 31.168H691.758C691.118 31.168 690.862 30.848 690.862 30.528C690.862 30.208 691.055 29.824 691.758 29.632C694.383 28.928 700.206 27.84 701.998 27.84C703.47 27.84 704.495 28.736 704.495 30.976C704.495 33.216 704.174 37.824 704.174 45.824V54.528C704.174 59.84 706.159 62.784 710.383 62.784C712.495 62.784 715.247 62.016 718.51 60.416C718.638 58.624 718.766 52.416 718.766 48.128V44.16C718.766 36.16 718.575 31.168 714.927 31.168H713.198C712.558 31.168 712.302 30.848 712.302 30.528C712.302 30.208 712.495 29.824 713.198 29.632C715.823 28.928 721.646 27.84 723.438 27.84C724.846 27.84 725.935 28.736 725.935 30.976C725.935 33.216 725.615 37.824 725.615 45.824V55.552C725.615 60.416 725.615 62.656 728.174 62.656C730.542 62.656 730.607 59.584 731.503 59.584C731.951 59.584 732.078 59.904 732.078 60.608C732.078 63.616 730.094 66.752 725.422 66.752C721.518 66.752 719.598 64.384 718.766 62.336Z" fill="#F0EEE9"/>
<path d="M746.535 37.952C748.583 29.12 752.551 27.072 756.007 27.072C759.271 27.072 761.511 28.672 761.511 32.256C761.511 36.16 757.671 36.992 755.751 36.992C755.751 35.84 755.687 32.896 752.935 32.896C749.351 32.896 746.343 39.232 746.343 46.784C746.343 54.528 746.535 57.28 746.727 59.072C747.239 62.912 748.775 64.448 754.023 64.448C754.791 64.448 755.175 64.896 755.175 65.344C755.175 65.728 754.855 66.112 754.215 66.112H734.247C733.607 66.112 733.287 65.728 733.287 65.344C733.287 64.896 733.671 64.448 734.439 64.448C737.767 64.448 739.047 62.848 739.367 59.072C739.495 57.28 739.751 52.864 739.751 48.576V45.824C739.751 37.824 739.367 31.232 734.055 31.232H732.519C731.879 31.232 731.559 30.912 731.559 30.528C731.559 30.208 731.815 29.824 732.519 29.632C735.143 28.928 742.631 27.84 743.655 27.84C746.087 27.84 746.535 32.576 746.535 37.952Z" fill="#F0EEE9"/>
<path d="M792.339 55.808C792.339 59.776 788.499 66.752 778.707 66.752C769.171 66.752 762.451 60.608 762.451 48.064C762.451 36.224 768.275 27.072 780.051 27.072C785.363 27.072 792.339 29.952 792.339 39.552C792.339 41.856 791.187 42.688 788.435 42.688H769.939C769.939 54.848 774.355 61.824 781.395 61.824C785.747 61.824 788.755 60.48 791.123 55.552C791.315 55.168 791.571 55.04 791.827 55.04C792.211 55.04 792.339 55.36 792.339 55.808ZM778.771 29.12C773.395 29.12 770.835 34.752 770.067 41.024L781.843 40.192C783.955 40.064 784.339 39.232 784.339 37.824C784.339 31.936 782.483 29.12 778.771 29.12Z" fill="#F0EEE9"/>
</g>
</g>
</g>
</g>
</svg>
