<svg width="306" height="48" viewBox="0 0 306 48" fill="none" xmlns="http://www.w3.org/2000/svg">
<g id="Desktop - 2">
<g id="Frame 39">
<g id="Frame 38">
<g id="Frame 41">
<g id="Terrain Library">
<path d="M0.92 5.69998H25.64C26.2 5.69998 26.56 6.01998 26.56 6.53998V13.66C26.56 14.34 26.12 14.58 25.64 14.58C25.16 14.58 24.68 14.34 24.64 13.66C24.4 10.66 22.56 8.09998 19.4 7.93998L16.28 7.77998V23.7C16.28 28.14 16.36 29.86 16.48 30.86C16.76 32.74 18 33.34 21.28 33.66C21.68 33.7 21.88 34.1 21.88 34.5C21.88 34.9 21.68 35.34 21.28 35.34H5.32C4.92 35.34 4.72 34.94 4.72 34.54C4.72 34.14 4.92 33.74 5.36 33.66C8.76 33.26 9.92 32.82 10.08 30.86C10.16 29.9 10.28 28.34 10.28 23.66V7.77998L7.16 7.89998C3.76 8.01998 2.24 10.5 1.92 13.66C1.88 14.18 1.4 14.58 0.92 14.58C0.44 14.58 0 14.38 0 13.74V6.53998C0 5.93998 0.32 5.69998 0.92 5.69998Z" fill="#FAF9F7"/>
<path d="M34.7406 16.62C32.6206 16.62 30.9406 19.38 30.7006 22.62L36.1006 22.18C37.0606 22.1 37.3806 21.7 37.3806 20.7C37.3806 17.98 36.3406 16.62 34.7406 16.62ZM36.3406 31.54C40.2206 31.54 40.9006 29.34 41.9006 29.34C42.2606 29.34 42.5406 29.58 42.5406 29.98C42.5406 32.5 39.1006 35.7 34.1806 35.7C28.6606 35.7 24.9406 32.26 24.9406 26.46C24.9406 19.14 29.3006 14.5 35.7806 14.5C38.8606 14.5 43.1006 16.38 43.1006 22.38C43.1006 23.7 42.4606 24.06 40.9806 24.14L30.5006 24.62C30.5406 28.98 32.7006 31.54 36.3406 31.54Z" fill="#FAF9F7"/>
<path d="M45.9675 17.38H45.3675C44.8875 17.38 44.6875 17.02 44.6875 16.66C44.6875 16.34 44.8475 15.98 45.2475 15.86C46.6475 15.46 52.0875 14.9 52.6475 14.9C53.9275 14.9 54.2875 17.22 54.2875 20.1L54.5275 20.18C56.2875 15.58 58.1275 14.5 60.1675 14.5C62.2475 14.5 63.5675 15.86 63.5675 17.94C63.5675 20.34 61.2075 21.42 60.6475 21.42C60.2475 20.18 59.5275 19.66 58.2475 19.66C56.8075 19.66 54.4075 21.26 54.4075 26.02C54.4075 29.14 54.4075 30.14 54.6075 31.1C55.0075 33.18 57.3675 33.5 59.7675 33.86C60.1675 33.9 60.3675 34.26 60.3675 34.62C60.3675 34.98 60.1675 35.34 59.6875 35.34H45.6875C45.2075 35.34 44.9675 34.98 44.9675 34.62C44.9675 34.26 45.1675 33.94 45.5675 33.9C47.3675 33.7 48.9675 33.38 48.9675 28.86V24.5C48.9675 20.22 48.4075 17.38 45.9675 17.38Z" fill="#FAF9F7"/>
<path d="M65.2644 17.38H64.6644C64.1844 17.38 63.9844 17.02 63.9844 16.66C63.9844 16.34 64.1444 15.98 64.5444 15.86C65.9444 15.46 71.3844 14.9 71.9444 14.9C73.2244 14.9 73.5844 17.22 73.5844 20.1L73.8244 20.18C75.5844 15.58 77.4244 14.5 79.4644 14.5C81.5444 14.5 82.8644 15.86 82.8644 17.94C82.8644 20.34 80.5044 21.42 79.9444 21.42C79.5444 20.18 78.8244 19.66 77.5444 19.66C76.1044 19.66 73.7044 21.26 73.7044 26.02C73.7044 29.14 73.7044 30.14 73.9044 31.1C74.3044 33.18 76.6644 33.5 79.0644 33.86C79.4644 33.9 79.6644 34.26 79.6644 34.62C79.6644 34.98 79.4644 35.34 78.9844 35.34H64.9844C64.5044 35.34 64.2644 34.98 64.2644 34.62C64.2644 34.26 64.4644 33.94 64.8644 33.9C66.6644 33.7 68.2644 33.38 68.2644 28.86V24.5C68.2644 20.22 67.7044 17.38 65.2644 17.38Z" fill="#FAF9F7"/>
<path d="M90.0813 29.82C90.0813 31.42 91.3213 32.26 93.1612 32.26C93.7612 32.26 94.4413 32.14 95.1213 31.94C95.2013 30.98 95.3213 29.46 95.3213 27.58V26.38C91.5612 26.5 90.0813 27.46 90.0813 29.82ZM92.4413 16.58C89.8813 16.58 89.8412 19.7 89.8412 21.62C89.1612 21.86 88.5612 21.94 88.0413 21.94C85.9613 21.94 85.0413 20.38 85.0413 18.9C85.0413 15.94 87.9613 14.5 93.0813 14.5C98.8413 14.5 101.321 17.1 101.321 21.14C101.321 22.34 101.121 25.18 101.121 27.38C101.121 31.38 101.201 32.86 103.201 32.86C103.361 32.86 103.561 32.82 103.881 32.82C104.281 32.82 104.481 33.14 104.481 33.38C104.481 34.58 101.561 35.74 99.4813 35.74C97.3613 35.74 95.7213 34.82 95.2812 33.7C93.1612 35.18 91.1612 35.74 89.4812 35.74C86.2012 35.74 84.0813 33.5 84.0813 30.82C84.0813 25.26 89.0013 24.42 95.3213 24.42V21.86C95.3213 18.58 94.8013 16.58 92.4413 16.58Z" fill="#FAF9F7"/>
<path d="M114.151 14.86C114.911 14.86 115.471 15.34 115.471 16.54C115.471 17.74 115.311 20.18 115.311 24.46V31.1C115.311 33.26 115.591 33.5 117.991 33.86C118.391 33.9 118.591 34.26 118.591 34.62C118.591 34.98 118.391 35.34 117.911 35.34H106.151C105.671 35.34 105.431 34.98 105.431 34.62C105.431 34.26 105.631 33.94 106.031 33.9C107.831 33.7 109.431 33.38 109.431 28.86V24.5C109.431 20.22 109.271 17.38 106.831 17.38H105.991C105.631 17.38 105.431 17.02 105.431 16.66C105.431 16.34 105.591 15.98 105.991 15.86C107.391 15.46 113.191 14.86 114.151 14.86ZM120.871 17.82H120.191C119.711 17.82 119.471 17.42 119.471 17.02C119.471 16.62 119.711 16.22 120.191 16.14C123.431 15.66 125.551 14.78 125.551 11.46C125.551 7.05998 122.271 4.21998 117.911 4.21998C115.311 4.21998 113.751 5.53998 113.751 7.33998C113.751 8.17998 114.031 8.85998 114.871 9.45998C114.871 11.22 113.551 11.94 112.111 11.94C109.911 11.94 108.591 10.54 108.591 8.57998C108.591 5.05998 112.271 2.61998 117.631 2.61998C123.351 2.61998 129.471 5.25998 129.471 15.34V17.86L130.671 16.98C132.551 15.62 134.831 14.5 137.471 14.5C140.111 14.5 143.071 16.06 143.071 21.26V31.1C143.071 33.26 143.351 33.5 145.751 33.86C146.151 33.9 146.351 34.26 146.351 34.62C146.351 34.98 146.151 35.34 145.671 35.34H135.031C134.551 35.34 134.311 34.98 134.311 34.62C134.311 34.26 134.511 33.94 134.911 33.9C136.711 33.7 137.111 33.18 137.111 27.78V22.38C137.111 20.06 136.191 18.78 134.311 18.78C132.911 18.78 131.031 19.42 129.431 20.26V31.1C129.431 33.26 129.711 33.5 132.111 33.86C132.511 33.9 132.711 34.26 132.711 34.62C132.711 34.98 132.511 35.34 132.031 35.34H120.271C119.791 35.34 119.551 34.98 119.551 34.62C119.551 34.26 119.751 33.94 120.151 33.9C121.951 33.7 123.551 33.38 123.551 28.86V24.5C123.551 20.22 123.311 17.82 120.871 17.82Z" fill="#FAF9F7"/>
<path d="M179.428 35.34H158.227C157.827 35.34 157.628 34.98 157.628 34.58C157.628 34.18 157.827 33.82 158.268 33.74C160.508 33.42 161.227 33.02 161.387 31.06C161.467 30.1 161.587 28.26 161.587 23.58V17.82C161.587 13.14 161.467 10.94 161.387 10.02C161.227 7.97998 160.667 7.53998 158.467 7.21998C158.027 7.17998 157.827 6.77998 157.827 6.41998C157.827 6.05998 158.028 5.69998 158.428 5.69998H170.508C170.908 5.69998 171.107 6.05998 171.107 6.41998C171.107 6.77998 170.908 7.13998 170.508 7.21998C168.668 7.53998 168.068 8.09998 167.788 10.02C167.668 10.98 167.587 13.3 167.587 17.74V23.62C167.587 28.06 167.628 30.14 167.747 31.14C167.988 32.94 169.348 33.22 171.788 33.22C176.228 33.22 178.467 29.94 180.027 26.66C180.227 26.26 180.467 26.1 180.947 26.1C181.347 26.1 181.747 26.38 181.667 26.98L180.628 34.5C180.548 35.18 179.988 35.34 179.428 35.34Z" fill="#FAF9F7"/>
<path d="M185.189 8.21998C185.189 6.21998 186.829 4.57998 188.829 4.57998C190.789 4.57998 192.389 6.21998 192.389 8.21998C192.389 10.18 190.789 11.78 188.829 11.78C186.829 11.78 185.189 10.18 185.189 8.21998ZM190.869 14.86C191.629 14.86 192.189 15.34 192.189 16.54C192.189 17.74 192.029 20.18 192.029 24.46V31.1C192.029 33.26 192.309 33.5 194.709 33.86C195.109 33.9 195.309 34.26 195.309 34.62C195.309 34.98 195.109 35.34 194.629 35.34H182.869C182.389 35.34 182.149 34.98 182.149 34.62C182.149 34.26 182.349 33.94 182.749 33.9C184.549 33.7 186.149 33.38 186.149 28.86V24.5C186.149 20.22 185.989 17.38 183.549 17.38H182.709C182.349 17.38 182.149 17.02 182.149 16.66C182.149 16.34 182.309 15.98 182.709 15.86C184.109 15.46 189.909 14.86 190.869 14.86Z" fill="#FAF9F7"/>
<path d="M205.007 21.1V29.54C205.007 31.54 206.287 33.22 208.767 33.22C211.887 33.22 213.767 29.9 213.767 24.54C213.767 20.62 212.087 18.38 209.327 18.38C207.687 18.38 205.887 19.66 205.007 21.1ZM203.487 33.86C202.007 34.82 200.367 35.74 199.647 35.74C199.127 35.74 198.887 35.46 198.887 34.9C198.887 34.02 199.127 32.46 199.127 29.5V12.18C199.127 7.89998 199.007 5.45998 196.567 5.45998H195.727C195.367 5.45998 195.167 5.09998 195.167 4.73998C195.167 4.41998 195.327 4.05998 195.727 3.93998C197.127 3.53998 202.887 2.53998 203.847 2.53998C204.607 2.53998 205.167 3.01998 205.167 4.21998C205.167 5.41998 205.007 7.85998 205.007 12.14V18.46C206.247 16.38 208.447 14.5 212.127 14.5C216.687 14.5 220.087 17.82 220.087 23.58C220.087 31.18 215.527 35.74 209.407 35.74C207.007 35.74 204.287 34.58 203.487 33.86Z" fill="#FAF9F7"/>
<path d="M222.764 17.38H222.164C221.684 17.38 221.484 17.02 221.484 16.66C221.484 16.34 221.644 15.98 222.044 15.86C223.444 15.46 228.884 14.9 229.444 14.9C230.724 14.9 231.084 17.22 231.084 20.1L231.324 20.18C233.084 15.58 234.924 14.5 236.964 14.5C239.044 14.5 240.364 15.86 240.364 17.94C240.364 20.34 238.004 21.42 237.444 21.42C237.044 20.18 236.324 19.66 235.044 19.66C233.604 19.66 231.204 21.26 231.204 26.02C231.204 29.14 231.204 30.14 231.404 31.1C231.804 33.18 234.164 33.5 236.564 33.86C236.964 33.9 237.164 34.26 237.164 34.62C237.164 34.98 236.964 35.34 236.484 35.34H222.484C222.004 35.34 221.764 34.98 221.764 34.62C221.764 34.26 221.964 33.94 222.364 33.9C224.164 33.7 225.764 33.38 225.764 28.86V24.5C225.764 20.22 225.204 17.38 222.764 17.38Z" fill="#FAF9F7"/>
<path d="M247.581 29.82C247.581 31.42 248.821 32.26 250.661 32.26C251.261 32.26 251.941 32.14 252.621 31.94C252.701 30.98 252.821 29.46 252.821 27.58V26.38C249.061 26.5 247.581 27.46 247.581 29.82ZM249.941 16.58C247.381 16.58 247.341 19.7 247.341 21.62C246.661 21.86 246.061 21.94 245.541 21.94C243.461 21.94 242.541 20.38 242.541 18.9C242.541 15.94 245.461 14.5 250.581 14.5C256.341 14.5 258.821 17.1 258.821 21.14C258.821 22.34 258.621 25.18 258.621 27.38C258.621 31.38 258.701 32.86 260.701 32.86C260.861 32.86 261.061 32.82 261.381 32.82C261.781 32.82 261.981 33.14 261.981 33.38C261.981 34.58 259.061 35.74 256.981 35.74C254.861 35.74 253.221 34.82 252.781 33.7C250.661 35.18 248.661 35.74 246.981 35.74C243.701 35.74 241.581 33.5 241.581 30.82C241.581 25.26 246.501 24.42 252.821 24.42V21.86C252.821 18.58 252.301 16.58 249.941 16.58Z" fill="#FAF9F7"/>
<path d="M264.171 17.38H263.571C263.091 17.38 262.891 17.02 262.891 16.66C262.891 16.34 263.051 15.98 263.451 15.86C264.851 15.46 270.291 14.9 270.851 14.9C272.131 14.9 272.491 17.22 272.491 20.1L272.731 20.18C274.491 15.58 276.331 14.5 278.371 14.5C280.451 14.5 281.771 15.86 281.771 17.94C281.771 20.34 279.411 21.42 278.851 21.42C278.451 20.18 277.731 19.66 276.451 19.66C275.011 19.66 272.611 21.26 272.611 26.02C272.611 29.14 272.611 30.14 272.811 31.1C273.211 33.18 275.571 33.5 277.971 33.86C278.371 33.9 278.571 34.26 278.571 34.62C278.571 34.98 278.371 35.34 277.891 35.34H263.891C263.411 35.34 263.171 34.98 263.171 34.62C263.171 34.26 263.371 33.94 263.771 33.9C265.571 33.7 267.171 33.38 267.171 28.86V24.5C267.171 20.22 266.611 17.38 264.171 17.38Z" fill="#FAF9F7"/>
<path d="M287.668 45.46C285.188 45.46 283.908 44.18 283.908 42.34C283.908 41.74 284.068 41.02 284.508 40.34C285.348 41.14 286.148 41.38 287.108 41.38C288.348 41.38 289.228 41.06 290.068 39.58L292.147 35.86L285.628 21.14C284.348 18.22 284.147 16.78 282.027 16.5C281.628 16.46 281.388 16.06 281.388 15.7C281.388 15.3 281.628 14.94 282.147 14.94H292.508C292.988 14.94 293.228 15.26 293.228 15.58C293.228 15.94 292.987 16.3 292.587 16.38C291.467 16.54 290.867 16.98 290.867 17.7C290.867 17.9 290.908 18.1 290.987 18.34L294.987 28.82L298.147 19.1C298.267 18.78 298.348 18.5 298.348 18.22C298.348 17.26 297.628 16.54 295.867 16.34C295.547 16.3 295.307 16.02 295.307 15.66C295.307 15.34 295.507 14.94 295.987 14.94H304.547C305.067 14.94 305.307 15.3 305.307 15.62C305.307 15.94 305.068 16.26 304.587 16.38C302.908 16.74 302.108 17.54 301.108 19.98L292.147 42.3C291.227 44.58 289.788 45.46 287.668 45.46Z" fill="#FAF9F7"/>
</g>
</g>
</g>
</g>
</g>
</svg>
